<svg width="385" height="82" viewBox="0 0 385 82" fill="none" xmlns="http://www.w3.org/2000/svg">
<path d="M29 12.4167C14.3127 12.4167 2.41669 24.3127 2.41669 39C2.41669 50.7631 10.0262 60.6985 20.593 64.2208C21.9222 64.4535 22.4206 63.656 22.4206 62.9581C22.4206 62.3269 22.3874 60.2333 22.3874 58.0071C15.7084 59.2364 13.9804 56.3787 13.4488 54.8835C13.1497 54.1192 11.8538 51.76 10.724 51.1285C9.79356 50.6302 8.4644 49.4006 10.6907 49.3675C12.7842 49.3342 14.2795 51.2948 14.7779 52.0923C17.1704 56.1129 20.9918 54.9831 22.5203 54.2854C22.7529 52.5575 23.4508 51.3944 24.215 50.7298C18.3002 50.0652 12.1196 47.7725 12.1196 37.6044C12.1196 34.7133 13.1497 32.3209 14.8444 30.4601C14.5786 29.7955 13.6481 27.0707 15.1102 23.4155C15.1102 23.4155 17.3366 22.7177 22.4206 26.1403C24.5473 25.5422 26.8069 25.2431 29.0665 25.2431C31.3261 25.2431 33.5856 25.5422 35.7123 26.1403C40.7965 22.6845 43.0227 23.4155 43.0227 23.4155C44.4848 27.0707 43.5544 29.7955 43.2886 30.4601C44.9834 32.3209 46.0134 34.6802 46.0134 37.6044C46.0134 47.8056 39.7996 50.0652 33.8848 50.7298C34.8484 51.5606 35.6792 53.1556 35.6792 55.6477C35.6792 59.2033 35.6459 62.061 35.6459 62.9581C35.6459 63.656 36.1444 64.4867 37.4736 64.2208C47.974 60.6985 55.5834 50.7298 55.5834 39C55.5834 24.3127 43.6873 12.4167 29 12.4167Z" fill="white"/>
<path d="M254.98 38.2605H241.535C241.369 38.2606 241.209 38.3295 241.091 38.452C240.973 38.5745 240.907 38.7407 240.907 38.914V45.7505C240.907 45.9239 240.973 46.0902 241.091 46.2129C241.209 46.3356 241.369 46.4047 241.535 46.405H246.78V54.8985C246.78 54.8985 245.603 55.3163 242.347 55.3163C238.505 55.3163 233.139 53.8562 233.139 41.5844C233.139 29.3101 238.727 27.6947 243.973 27.6947C248.514 27.6947 250.47 28.5267 251.715 28.9269C252.106 29.0516 252.468 28.6469 252.468 28.2855L253.968 21.6804C253.968 21.5117 253.913 21.308 253.727 21.1697C253.222 20.7948 250.138 19 242.347 19C233.371 19 224.164 22.9718 224.164 42.0629C224.164 61.1553 234.705 64 243.588 64C250.943 64 255.405 60.7312 255.405 60.7312C255.589 60.6252 255.609 60.3581 255.609 60.2354V38.9136C255.609 38.5533 255.327 38.2605 254.98 38.2605ZM324.272 21.2875C324.272 21.2017 324.257 21.1166 324.226 21.0371C324.195 20.9576 324.149 20.8852 324.091 20.8242C324.033 20.7631 323.964 20.7146 323.888 20.6814C323.812 20.6482 323.73 20.6309 323.648 20.6306H316.077C315.994 20.6309 315.912 20.6481 315.836 20.6813C315.76 20.7145 315.691 20.763 315.632 20.824C315.574 20.885 315.528 20.9573 315.497 21.0369C315.465 21.1164 315.449 21.2016 315.45 21.2875L315.452 36.5028H303.651V21.2875C303.652 21.2017 303.636 21.1166 303.605 21.037C303.574 20.9575 303.528 20.8852 303.47 20.8241C303.412 20.7631 303.343 20.7146 303.267 20.6814C303.191 20.6481 303.109 20.6309 303.027 20.6306H295.457C295.29 20.6315 295.13 20.7012 295.013 20.8244C294.896 20.9476 294.83 21.1142 294.831 21.2875V62.4862C294.831 62.8493 295.112 63.1449 295.457 63.1449H303.027C303.373 63.1449 303.651 62.849 303.651 62.4862V44.8639H315.452L315.431 62.4862C315.431 62.8493 315.712 63.1449 316.058 63.1449H323.647C323.994 63.1449 324.271 62.849 324.272 62.4862V21.2875ZM269.266 26.6941C269.266 23.8588 267.081 21.5678 264.384 21.5678C261.691 21.5678 259.504 23.8588 259.504 26.6941C259.504 29.5259 261.691 31.8228 264.384 31.8228C267.081 31.8228 269.266 29.5259 269.266 26.6941ZM268.725 53.7956V34.7783C268.725 34.6049 268.66 34.4385 268.542 34.3154C268.425 34.1923 268.265 34.1227 268.098 34.1217H260.552C260.206 34.1217 259.896 34.4932 259.896 34.8546V62.1002C259.896 62.9013 260.376 63.139 260.997 63.139H267.796C268.542 63.139 268.725 62.7578 268.725 62.0877V53.7956ZM353.042 34.1838H345.53C345.185 34.1838 344.905 34.479 344.905 34.8424V55.0433C344.905 55.0433 342.996 56.4958 340.287 56.4958C337.579 56.4958 336.86 55.2176 336.86 52.4592V34.8424C336.86 34.479 336.58 34.1838 336.236 34.1838H328.611C328.267 34.1838 327.985 34.479 327.985 34.8424V53.7928C327.985 61.9859 332.375 63.9903 338.416 63.9903C343.371 63.9903 347.366 61.1436 347.366 61.1436C347.366 61.1436 347.556 62.6435 347.642 62.8216C347.729 62.999 347.953 63.1781 348.195 63.1781L353.046 63.156C353.39 63.156 353.672 62.8601 353.672 62.4983L353.669 34.8428C353.669 34.479 353.388 34.1838 353.042 34.1838ZM370.612 56.4708C368.006 56.3884 366.239 55.1583 366.239 55.1583V42.1121C366.239 42.1121 367.982 41.0005 370.121 40.8017C372.827 40.5498 375.433 41.3997 375.433 48.1108C375.434 55.1881 374.257 56.5848 370.612 56.4708ZM373.575 33.2586C369.308 33.2586 366.406 35.2385 366.406 35.2385V21.2879C366.406 20.924 366.126 20.6306 365.781 20.6306H358.189C358.107 20.631 358.025 20.6483 357.949 20.6816C357.873 20.7148 357.804 20.7634 357.746 20.8244C357.687 20.8854 357.641 20.9578 357.61 21.0373C357.579 21.1168 357.563 21.202 357.564 21.2879V62.4862C357.564 62.8493 357.844 63.1449 358.19 63.1449H363.458C363.695 63.1449 363.874 63.0177 364.007 62.7953C364.138 62.5739 364.327 60.8958 364.327 60.8958C364.327 60.8958 367.431 63.9553 373.308 63.9553C380.207 63.9553 384.164 60.3158 384.164 47.6171C384.164 34.918 377.845 33.2586 373.575 33.2586ZM290.483 34.1183H284.804L284.795 26.3157C284.795 26.0205 284.649 25.8729 284.321 25.8729H276.582C276.281 25.8729 276.12 26.0108 276.12 26.3112V34.3743C276.12 34.3743 272.242 35.3476 271.98 35.4266C271.849 35.466 271.734 35.5486 271.652 35.6618C271.57 35.775 271.526 35.9128 271.526 36.0544V41.1211C271.526 41.4856 271.806 41.7787 272.152 41.7787H276.12V53.9675C276.12 63.0212 282.226 63.9106 286.347 63.9106C288.229 63.9106 290.481 63.2821 290.853 63.1386C291.078 63.0527 291.209 62.8105 291.209 62.5479L291.215 56.9743C291.215 56.6105 290.92 56.317 290.587 56.317C290.257 56.317 289.41 56.457 288.538 56.457C285.749 56.457 284.804 55.1081 284.804 53.3621L284.804 41.7784H290.483C290.829 41.7784 291.109 41.4849 291.109 41.1208V34.7742C291.11 34.6883 291.094 34.6032 291.062 34.5237C291.031 34.4443 290.985 34.372 290.927 34.3111C290.869 34.2501 290.799 34.2017 290.723 34.1687C290.647 34.1356 290.565 34.1185 290.483 34.1183Z" fill="white"/>
<path d="M73.92 18.7H91.44C95.92 18.7 99.4 19.8 101.88 22C104.36 24.2 105.6 27.32 105.6 31.36C105.6 35.36 104.36 38.48 101.88 40.72C99.4 42.96 95.92 44.08 91.44 44.08H80.1V61H73.92V18.7ZM90.78 39.1C96.7 39.1 99.66 36.52 99.66 31.36C99.66 26.24 96.7 23.68 90.78 23.68H80.1V39.1H90.78ZM136.425 47.38H115.725C116.165 53.58 119.245 56.68 124.965 56.68C128.325 56.68 131.365 55.58 134.085 53.38L135.945 57.64C134.585 58.8 132.905 59.72 130.905 60.4C128.905 61.08 126.865 61.42 124.785 61.42C120.105 61.42 116.405 60.08 113.685 57.4C111.005 54.72 109.665 51.02 109.665 46.3C109.665 43.3 110.245 40.64 111.405 38.32C112.605 36 114.265 34.2 116.385 32.92C118.545 31.64 120.985 31 123.705 31C127.665 31 130.765 32.28 133.005 34.84C135.285 37.4 136.425 40.94 136.425 45.46V47.38ZM123.825 35.44C121.505 35.44 119.645 36.18 118.245 37.66C116.885 39.1 116.065 41.18 115.785 43.9H131.205C131.085 41.18 130.385 39.1 129.105 37.66C127.865 36.18 126.105 35.44 123.825 35.44ZM160.922 36.1L157.262 36.46C154.382 36.74 152.302 37.62 151.022 39.1C149.782 40.58 149.162 42.46 149.162 44.74V61H143.102V31.72H148.982V36.82C150.542 33.38 153.722 31.48 158.522 31.12L160.502 31L160.922 36.1ZM175.515 31.72H194.115V61H188.055V36.4H175.515V61H169.455V36.4H163.755V31.72H169.455V31.18C169.455 27.14 170.495 24.1 172.575 22.06C174.655 19.98 177.815 18.84 182.055 18.64L184.455 18.52L184.815 23.08L181.995 23.26C179.675 23.38 178.015 24 177.015 25.12C176.015 26.24 175.515 27.92 175.515 30.16V31.72ZM194.655 18.58V25H187.575V18.58H194.655ZM202.575 18.7H208.635V61H202.575V18.7Z" fill="white"/>
</svg>
